<?xml version="1.0" encoding="utf-8"?>
<!-- Generator: Adobe Illustrator 16.0.0, SVG Export Plug-In . SVG Version: 6.00 Build 0)  -->
<!DOCTYPE svg PUBLIC "-//W3C//DTD SVG 1.1//EN" "http://www.w3.org/Graphics/SVG/1.1/DTD/svg11.dtd">
<svg version="1.1" id="Layer_1" xmlns="http://www.w3.org/2000/svg" xmlns:xlink="http://www.w3.org/1999/xlink" x="0px" y="0px"
	 width="1600px" height="228px" viewBox="0 0 1600 228" enable-background="new 0 0 1600 228" xml:space="preserve">
<g>
	<path fill="#F1F1F1" d="M1453.303,74.323c-4.16,0-8.26,0.254-12.292,0.731c-34.434-34.774-82.206-56.319-135.012-56.319
		c-76.536,0-142.5,45.256-172.599,110.464c-38.806,3.277-72.644,23.963-93.688,54.221c-19.673-23.637-49.311-38.686-82.466-38.686
		c-35.938,0-67.742,17.68-87.203,44.811c-25.356-14.514-54.731-22.811-86.047-22.811c-49.717,0-94.549,20.914-126.182,54.422
		c-12.347-5.41-25.979-8.422-40.318-8.422c-3.76,0-7.469,0.215-11.122,0.615c-22.609-39.275-64.744-65.883-113.146-66.592
		C475.046,63.54,400.924,1.235,312.25,1.235c-44.302,0-84.969,15.553-116.846,41.495c-9.615-2.188-19.62-3.349-29.898-3.349
		c-57.421,0-106.409,36.078-125.551,86.801c-12.423-4.05-25.681-6.246-39.454-6.246v108.83h1600v-108.83
		c-19.521,0-38.011,4.401-54.542,12.256C1529.208,97.926,1494.014,74.323,1453.303,74.323z"/>
</g>
</svg>
